<?xml version="1.0" encoding="UTF-8" standalone="no"?>
<!-- Generator: Adobe Illustrator 22.0.1, SVG Export Plug-In . SVG Version: 6.00 Build 0)  -->

<svg
   version="1.1"
   id="Capa_1"
   x="0px"
   y="0px"
   viewBox="0 0 841.9 595.3"
   enable-background="new 0 0 841.9 595.3"
   xml:space="preserve"
   sodipodi:docname="Entertainment.svg"
   inkscape:version="1.4 (86a8ad7, 2024-10-11)"
   xmlns:inkscape="http://www.inkscape.org/namespaces/inkscape"
   xmlns:sodipodi="http://sodipodi.sourceforge.net/DTD/sodipodi-0.dtd"
   xmlns="http://www.w3.org/2000/svg"
   xmlns:svg="http://www.w3.org/2000/svg"><defs
   id="defs74" /><sodipodi:namedview
   id="namedview74"
   pagecolor="#ffffff"
   bordercolor="#000000"
   borderopacity="0.25"
   inkscape:showpageshadow="2"
   inkscape:pageopacity="0.0"
   inkscape:pagecheckerboard="0"
   inkscape:deskcolor="#d1d1d1"
   inkscape:zoom="0.4644717"
   inkscape:cx="420.90831"
   inkscape:cy="470.42694"
   inkscape:window-width="1366"
   inkscape:window-height="705"
   inkscape:window-x="-8"
   inkscape:window-y="-8"
   inkscape:window-maximized="1"
   inkscape:current-layer="Capa_1" />
<path
   style="fill:#b6ebcd;fill-opacity:1;stroke-width:22.0293;stroke-linecap:round;stroke-linejoin:round;stroke-dashoffset:1260.83"
   d="M 249.13384,104.00409 C 333.32003,-6.7143232 510.1457,112.00325 587.89441,92.760247 799.87229,40.29518 828.47271,546.05386 485.7278,534.83481 -14.753139,518.45259 183.51371,314.78555 204.91915,267.10975 246.08963,175.41176 201.69782,166.3901 249.13384,104.00409 Z"
   id="path75"
   sodipodi:nodetypes="sssss" />
<linearGradient
   id="SVGID_1_"
   gradientUnits="userSpaceOnUse"
   x1="370.0165"
   y1="274.6755"
   x2="484.1805"
   y2="274.6755"
   gradientTransform="matrix(1.2993583,0,0,1.427896,-117.71923,-144.42263)">
	<stop
   offset="0.4225"
   style="stop-color:#FFFFFF"
   id="stop1" />
	<stop
   offset="0.9285"
   style="stop-color:#FFFFFF;stop-opacity:0"
   id="stop2" />
</linearGradient>
<path
   opacity="0.56"
   fill="url(#SVGID_1_)"
   d="m 364.47265,204.84076 c 0,0 54.70299,-41.12341 127.46706,-95.66904 44.17818,35.12625 44.9578,244.02745 0,277.44023 -75.10291,-34.12673 -128.89635,-59.1149 -128.89635,-59.1149 z"
   id="path2"
   style="fill:url(#SVGID_1_);stroke-width:1.36211" />
<g
   id="g74"
   transform="matrix(1.2993583,0,0,1.4278961,-99.535498,-139.81128)">
	<path
   fill="#3d405b"
   d="m 503,350.5 c 0.7,-0.6 1.6,-0.7 2.5,-0.7 3.5,-0.1 6.9,0.4 10.3,1.6 5.6,2.1 11.1,4.1 16,7.6 1.6,1.2 3.3,2.3 4.5,3.9 0,4.7 -0.5,9.3 -1.4,13.9 -1.2,6.1 -3.6,11.7 -7.1,16.8 -2.5,3.6 -4.8,7.3 -7.9,10.4 -2.3,2.4 -4.8,4.6 -7.6,6.3 -0.7,0.4 -1.4,0.8 -2.2,1 -5.6,1.5 -11.3,2.5 -17.1,3 -5.4,0.5 -10.9,0.5 -16.3,0.5 -5.2,0 -10.3,0.4 -15.5,1 -4.3,0.5 -8.6,0.5 -13,0.3 -1.1,-2.4 -1.9,-5 -3.2,-7.3 -0.9,-0.8 -1,-1.8 -1.2,-2.9 -0.1,-0.8 -0.2,-1.5 -0.2,-2.3 0,-1.9 0.1,-3.7 0.5,-5.6 0.1,-0.3 0.2,-0.7 0.5,-0.8 0.5,-0.1 0.7,0.3 0.9,0.6 0.7,0.9 1.5,1.8 2.1,2.9 0.4,0.6 0.9,1.1 1.5,1.5 0.9,0.5 1.1,0.5 1.4,-0.4 0.2,-0.5 0.4,-0.9 0.5,-1.4 1.1,-3.7 3.4,-6.6 6.7,-8.5 3,-1.3 6.1,-1.6 9.2,-1.4 1.7,0.1 3.4,0.2 5.2,0 2.3,-0.1 4.5,-0.8 6.7,-1.4 1,-0.3 1.8,-0.8 2.6,-1.5 1,-0.9 2.1,-1.8 3.4,-2.3 1,-0.4 2,-0.6 3,-0.6 2.7,0 4.4,-1.1 5.5,-3.7 0.6,-1.4 0.8,-3 1.2,-4.4 0.8,-3.5 2.4,-6.6 5,-9.1 0.1,-0.1 0.3,-0.3 0.4,-0.4 2,-1.5 2.5,-3.6 2.2,-5.9 -0.2,-2.1 0.5,-4.1 0.5,-6.2 0,-1 0,-2 -0.1,-3 0,-0.7 -0.1,-1.2 0.5,-1.5 z"
   id="path3" />
	<path
   fill="#f2cc8f"
   d="m 354.59779,330.4 c 0,1.4 0,2.8 0,4.1 0,0.9 -0.35435,1 -0.70871,1 -0.53153,0 -1.06307,0 -1.65366,-0.1 -3.07109,-0.1 -6.08311,0.4 -9.1542,0.2 -0.41342,0 -0.82683,0.1 -1.18119,-0.4 -0.17718,-0.4 -0.17718,-0.9 -0.17718,-1.3 0,-1.9 -0.0591,-3.8 0,-5.8 0.17718,-3 0.11812,-6 0.11812,-9 0,-4.7 -0.0591,-9.4 0,-14.2 0.17718,-10 0,-20 0.17718,-30 0.11812,-8.7 0,-17.3 0.11812,-26 0.0591,-3.1 0.11812,-6.3 0.11812,-9.4 0,-1.3 0.0591,-1.4 1.2993,-1.9 2.59862,-0.5 5.19723,-0.3 7.79584,-0.4 0.11812,0 0.2953,0 0.35436,0.2 0.94495,0 1.8899,0 2.83485,0 0.82683,0 1.004,0.2 1.004,1.7 0,1.4 0,2.8 0,4.2 -0.0591,1 -0.11811,2 0.0591,3.1 0.0591,0.4 0.0591,0.9 0.0591,1.4 0.0591,6.8 -0.11812,13.6 -0.17717,20.4 -0.0591,4.4 0.0591,8.9 -0.11812,13.3 -0.17718,5.4 0,10.9 -0.11812,16.3 -0.11812,4.5 0,9 -0.11812,13.5 -0.11812,4.3 -0.0591,8.6 -0.11812,12.9 -0.0591,2.2 -0.23624,4.2 -0.41342,6.2 z"
   id="path4"
   style="fill:#333333;stroke-width:0.768501" />
	
	
	<path
   fill="#2d2f42"
   d="m 448.3,416.1 c 0.3,-0.4 0.8,-0.3 1.2,-0.3 2.1,0 4.2,0 6.3,0 3.3,-0.1 6.5,-0.4 9.8,-0.9 1,-0.1 2.1,-0.2 3.1,-0.3 3.7,-0.1 7.5,-0.4 11.2,-0.3 3.4,0.1 6.8,-0.1 10.2,-0.3 4.3,-0.2 8.6,-0.9 12.9,-1.7 1.8,-0.3 3.6,-0.8 5.4,-1.1 3.1,-0.5 5.4,-2.4 7.6,-4.3 6.6,-5.6 11.2,-12.8 15.2,-20.3 2.2,-4.2 3.1,-8.8 3.9,-13.5 0.5,-2.9 0.5,-5.8 0.9,-8.6 0.1,-0.5 0,-0.9 -0.2,-1.4 -0.1,-0.4 0.1,-0.6 0.5,-0.5 0.9,0.9 1.5,2.1 2,3.2 2.3,4.9 3.2,10.1 3.4,15.4 0.3,8.2 0.5,16.4 -0.6,24.6 -0.4,2.9 -1.2,5.8 -2.4,8.5 -1.9,4.4 -5.5,6.6 -10.1,7.5 -4.9,1 -9.9,1.4 -14.8,0.6 -1.6,-0.3 -3.2,0.1 -4.8,0.2 -1.4,0.1 -2.8,0.2 -4.1,0.2 -5.7,-0.2 -11.3,0.5 -17,-0.1 -6.4,-0.6 -12.8,0.2 -19.2,0.2 -4.1,0 -8.2,0.6 -12.3,0.5 -1.1,0 -2.1,-0.2 -2.9,-0.9 -2.2,-1.6 -4.2,-3.7 -5.2,-6.4 z"
   id="path7" />
	<path
   fill="#c56b53"
   d="m 327.6,334.8 c 0.3,0.6 0.7,0.7 1.3,0.7 6.5,-0.1 13.1,-0.2 19.6,-0.2 6.2,0.2 12.4,-0.3 18.6,-0.2 0.5,0 1.1,-0.1 1.6,0.1 0.6,0.2 0.9,-0.1 1.2,-0.6 2.1,0 4.2,0 6.3,0 1.3,0 1.4,0.1 1,1.4 -0.5,0.8 -1.3,0.6 -2,0.6 -4.8,0 -9.6,0.1 -14.3,0 -3.1,0 -6.3,0.3 -9.4,0.3 -0.9,0 -1.2,0.3 -1.2,1.2 0,0.9 0.2,1.8 -0.3,2.6 -0.5,0.4 -1.2,0.4 -1.8,0.4 -2.4,0 -4.8,0 -7.1,0 -1.2,0 -1.3,0.1 -1.3,1.3 0,7.8 0,15.6 0,23.5 0,1.2 0.1,1.3 1.4,1.3 3,0 6.1,0 9.1,0 0.6,0 1.2,-0.1 1.8,0.4 -0.1,0.9 -0.9,0.7 -1.4,0.7 -2.7,0.1 -5.4,0 -8.2,0 -2.9,0 -2.6,-0.2 -2.6,2.6 0,3 0,6.1 0,9.1 0,1.5 0.1,1.5 1.6,1.5 2.7,0 5.4,0 8.1,0 0.6,0 1.2,-0.1 1.8,0.4 0.3,0.3 0.3,0.7 0.3,1.1 0,2 0,3.9 0,5.9 0,0.4 -0.1,0.8 -0.4,1.2 -3.6,0.1 -7.1,0.1 -10.7,0.1 -0.9,0 -1.1,0.3 -1.1,1.2 0,8.1 0,16.3 -0.1,24.4 0,0.9 0.2,1.3 1.2,1.2 2.5,0 2.5,0 2.4,2.4 0,0.7 -0.1,1.4 0,2.1 0.1,1.1 -0.5,1.4 -1.4,1.5 -0.8,0.1 -1.7,0.1 -2.5,0.1 -4.1,0 -8.2,0 -12.3,0 -1.6,0 -1.7,-0.2 -1.6,-1.7 0,-1.2 0.1,-2.4 0.1,-3.6 0,-0.5 0.2,-0.7 0.7,-0.7 0.9,0 1.8,-0.2 2.6,-0.1 0.8,0 1,-0.3 1,-1.1 -0.1,-4.4 -0.2,-8.7 -0.3,-13.1 -0.3,-10.5 -0.4,-20.9 -0.5,-31.4 -0.1,-9.9 -0.2,-19.7 -0.3,-29.6 0,-0.9 -0.3,-1.1 -1.1,-1.1 -2,0.1 -4,0.1 -6,0.1 -0.9,0 -1.4,-0.2 -1.2,-1.4 0.2,-1 0,-2.1 -0.1,-3.1 -0.1,-1 0.3,-1.4 1.3,-1.4 2,-0.1 4.1,-0.1 6.2,-0.1 z"
   id="path8" />
	<path
   fill="#81b29a"
   d="m 503,350.5 c -0.1,0.3 -0.2,0.5 -0.2,0.8 0.6,3.4 -0.2,6.7 -0.2,10 -0.9,1.5 -2.2,2.6 -3.4,3.7 -1.3,1.1 -2.2,2.4 -2.9,3.9 -2,4.3 -4.5,8.2 -7.3,11.9 -0.5,0.7 -1.2,1 -2.1,1.1 -2.4,0.1 -4.6,0.8 -6.6,2.1 -2.5,1.7 -5.2,3.2 -7.2,5.7 -0.2,0.2 -0.4,0.4 -0.8,0.5 -0.3,-0.1 -0.5,-0.3 -0.6,-0.5 -1.3,-2 -2.7,-3.9 -4.2,-5.7 -0.8,-1.1 -1.6,-2.2 -2.5,-3.2 -0.3,-0.3 -0.8,-0.6 -0.4,-1.1 0.5,-0.2 0.9,0.2 1.2,0.5 1.3,0.8 2.6,1.6 4.1,2 2.9,0.9 5.5,0 7.8,-1.6 3.5,-2.5 6.1,-5.9 8,-9.8 1.3,-2.6 2.8,-5.1 4.2,-7.7 2,-3.8 3.5,-7.8 4.1,-12.1 0,-0.2 0.1,-0.4 0.1,-0.5 -2.3,4.4 -5.5,7.9 -9.8,10.5 -3,1.8 -6.1,3.3 -9.6,4 -1.2,0.2 -2.3,0.4 -3.5,0.5 -3.1,0.3 -5.4,-1.4 -7.6,-3.3 -1.4,-1.2 -2.7,-2.5 -4,-3.8 -0.5,-0.4 -0.9,-0.8 -1.2,-1.4 -1.9,-2.9 -4.7,-4.9 -7.4,-7 -1.2,-0.9 -2.7,-1.3 -4.1,-1.9 -0.3,-0.5 0.1,-0.8 0.3,-1 0.4,-0.4 0.7,-0.9 1,-1.3 1,-1.3 2,-2.4 3.9,-2.2 0.5,0.1 1,0.2 1.4,0.5 2,1.7 4.1,3.3 6.4,4.7 0.2,0.1 0.4,0.3 0.6,0.6 0.9,1.5 2,2.8 3.6,3.6 0.6,0.3 1.2,0.7 1.7,1.2 0.5,0.5 1,0.9 1.7,1.1 0.4,0.1 0.7,0.3 1,0.5 2.7,2.1 5.9,1.7 7.5,-1.3 2,-3.7 4.2,-7.3 5.1,-11.6 0.8,-4.1 2.8,-7.7 5.3,-11 0.9,-1.3 1.8,-2.6 2.8,-3.8 0.3,-0.1 0.4,0 0.5,0.3 3.1,3.3 6.5,6.5 8.8,10.5 1.9,3.4 3.3,6.9 4.3,10.6 -0.1,0.2 -0.1,0.7 0.2,1 z"
   id="path9" />
	<path
   fill="#c76c54"
   d="m 495.3,251.4 c 3,0.6 5.2,2.5 7.1,4.8 3.1,3.6 6.5,6.8 10.9,8.8 1.1,0.5 2.3,1.1 3.4,1.6 0.6,0.3 0.9,0.6 0.8,1.3 -0.4,4.3 -0.7,8.7 -2,12.9 -2,6.3 -2.4,12.8 -1.5,19.4 0,0.2 0.1,0.3 0.1,0.5 0,0.3 0.2,0.7 -0.1,0.9 -0.3,0.2 -0.6,-0.1 -0.9,-0.3 -1.2,-0.7 -2.5,-1.3 -3.7,-2 -0.1,0 -0.1,0 -0.3,0 0.3,4.9 1.1,9.6 2.5,14.6 -2.5,-1.9 -4.5,-3.9 -7,-5.6 -0.9,4.3 -0.7,8.5 0.4,12.6 -0.4,0.3 -0.4,0.4 -0.8,0.1 -0.6,-0.5 -1.2,-1.2 -1.8,-1.8 -4.6,-5.2 -8.5,-10.9 -11.7,-17.1 -0.3,-0.5 -0.7,-0.8 -1,-1.2 0.1,-0.5 0.6,-0.5 1,-0.7 8.8,-3.5 11.2,-14.2 4.7,-21.1 -0.4,-0.4 -0.8,-0.7 -0.7,-1.4 0.2,-6.8 0.2,-13.6 0.3,-20.4 0,-1.5 0.2,-3 0.2,-4.5 -0.4,-0.4 -0.4,-1 0.1,-1.4 z"
   id="path10" />
	<path
   fill="#e07a5f"
   d="m 350,340.5 c 0,-1 0,-2.1 0,-3.1 0,-0.8 0.3,-1 1.1,-1.1 7.7,-0.3 15.4,-0.2 23,-0.2 1.1,0 2.2,0.2 3.3,-0.2 0.1,1.2 -0.2,2.4 -0.2,3.7 0,0.7 -0.3,0.9 -1,0.9 -1.4,0 -2.8,0 -4.1,0 -0.6,0 -0.9,0.1 -0.9,0.8 -0.1,9.1 -0.2,18.3 -0.3,27.4 0,0.3 0,0.7 0,1 0.3,0.3 0.4,0.7 0.3,1 -0.8,1.7 -0.3,3.4 -0.4,5.1 0,0.1 0,0.1 0,0.2 -0.1,12.8 -0.2,25.6 -0.4,38.4 0,0.4 0,0.8 -0.1,1.1 0,0.4 0.2,0.6 0.6,0.7 0.7,0.1 1.4,-0.3 1.9,0.4 0.6,0.7 0.4,1.6 0.4,2.4 0,0.2 0,0.4 0,0.6 -0.4,0.4 -0.9,0.4 -1.4,0.4 -4.3,-0.1 -8.6,0.3 -12.9,0.2 -1.3,0 -2.3,0 -2.8,1.5 -0.4,-1.3 -0.2,-2.7 -0.2,-4 0,-0.7 0.5,-1 1.2,-1.2 1.1,-0.3 2.2,-0.5 3.3,-0.5 0.8,0 1.1,-0.2 1.1,-1.1 -0.3,-8.1 -0.5,-16.2 -0.4,-24.4 0,-0.7 -0.3,-0.9 -0.9,-0.9 -3,0 -6,0 -9,0 0,-2.7 0,-5.4 0,-8.1 0.8,-0.6 1.7,-0.6 2.6,-0.6 1.8,-0.1 3.7,0 5.5,0 1.3,0 1.3,-0.1 1.4,-1.4 0.1,-3.6 -0.1,-7.1 -0.2,-10.7 0,-0.5 0,-1.1 0.1,-1.6 -0.1,-2.4 0,-4.8 -0.1,-7.2 0,-6.1 -0.4,-12.2 -0.2,-18.3 0,-0.8 -0.3,-1 -1,-1 -2.5,0 -5,0 -7.5,0 -0.7,0.3 -1.4,0.4 -1.8,-0.2 z"
   id="path11" />
	<path
   fill="#e07a5f"
   d="m 467.7,383.8 c 1.8,1.9 3.2,4 4.6,6.2 0.3,0.2 0.4,0.4 0.2,0.7 -1.4,0.3 -2.8,0.3 -4.2,0.2 -2.5,-0.3 -4.9,0 -7.3,0.3 -1.1,0.2 -2.1,0.6 -3.2,1 -0.7,0.3 -1.3,0.3 -2,0.2 -3.1,-0.6 -6.3,0 -9.4,0 -1.7,0 -4.9,2.2 -5.3,4.7 -0.4,2 -0.6,3.9 -0.7,5.9 0,1.3 0,2.7 0,4 0,0.8 -0.3,1.3 -1.2,1.3 -4.2,-0.6 -8.5,-0.6 -12.6,-2.4 -1.6,-0.7 -2.3,-1.8 -2.3,-3.4 0,-1.5 -0.1,-3.1 -0.4,-4.6 0.1,-2.2 0,-4.5 0.5,-6.7 0.1,-0.6 0,-1.1 -0.2,-1.6 0.5,0 0.9,-0.1 1,-0.8 0.9,-4.3 2.4,-8.4 4.6,-12.1 0.2,-0.4 0.4,-0.8 0.5,-1.2 1.4,-2.1 3.2,-3.9 5.5,-5.1 4.1,-2.3 8.4,-2.2 12.6,-0.3 4.5,2 8.8,4.4 12.7,7.3 2.5,1.8 4.5,4.1 6.6,6.4 z"
   id="path12" />
	<path
   fill="#e07a5f"
   d="m 454.7,276.5 c 0.2,-1.4 -0.2,-2.7 -0.3,-4 -0.3,-2.4 0,-4.7 1.3,-6.7 4.5,-6.9 10.6,-11.9 18.5,-14.6 0.5,-0.2 1.1,-0.4 1.7,-0.3 0.7,1 0.5,2.2 0.6,3.3 0.4,7 1.8,13.8 3.5,20.5 0.1,0.5 0.3,1 0.3,1.5 -0.2,0.7 -0.8,0.9 -1.2,1.3 -3,2.1 -4.9,4.9 -5.6,8.5 -0.9,4.9 1.5,10.4 5.8,12.9 0.5,0.3 1,0.5 1.3,0.9 0.6,1.6 1.3,3.2 1.9,4.9 0.2,0.8 -0.2,1 -0.9,0.9 -0.3,-0.1 -0.6,-0.2 -0.9,-0.3 -0.9,-0.6 -1.9,-0.8 -2.8,-1.3 -4.4,-2.4 -7.4,-6 -9.7,-10.4 -0.5,-0.9 -1.1,-1.6 -1.9,-2.2 -2.3,-1.6 -4.2,-3.6 -5.5,-6 -0.1,-0.4 -0.3,-0.7 -0.5,-1 -2.1,-2.9 -3.7,-6 -5,-9.3 -0.1,0.5 0.3,1.1 -0.6,1.4 z"
   id="path13" />
	<path
   fill="#6f9985"
   d="m 446.7,347.9 c 1.9,0.2 3.5,1 5,2.2 1.8,1.4 3.5,3 5.2,4.5 0.9,0.7 1.2,1.9 2,2.7 2.7,2.4 5,5.1 8.2,7 1.5,0.9 3.1,0.9 4.7,0.7 5,-0.5 9.4,-2.4 13.6,-5.2 3.6,-2.4 6.3,-5.6 8.4,-9.4 0.2,-0.3 0.4,-0.7 0.6,-1 0,1.6 -0.1,3.1 -0.6,4.6 -1.3,4.7 -3.2,9.1 -5.9,13.2 -1.3,1.9 -1.9,4.3 -3.2,6.2 -1.8,2.6 -3.7,5.2 -6.3,7.1 -3,2.2 -6.5,3.3 -10.2,1.3 -1.2,-0.7 -2.4,-1.4 -3.7,-2.1 -0.5,0.1 -0.7,-0.3 -1,-0.6 -2.3,-2.9 -4.9,-5.7 -7,-8.8 -1.6,-2.3 -3.9,-3.6 -6.3,-4.9 -0.4,-0.2 -0.9,-0.2 -1.1,-0.8 -1.2,-2.2 -3.1,-3.9 -4.7,-5.8 -1.1,-1.2 -2.3,-2.4 -3.4,-3.5 -0.5,-1.1 -0.5,-2.1 0.3,-3 1.1,-1.1 2.4,-2.1 3.6,-3.2 0.6,-0.3 0.9,-1.2 1.8,-1.2 z"
   id="path14" />
	<path
   fill="#3d405b"
   d="m 424.1,397.9 c 0.5,1.4 0.5,2.8 0.5,4.2 0,1.8 0.5,2.9 2.4,3.7 2.8,1.1 5.6,1.4 8.5,1.8 1.2,0.1 2.4,0.5 3.6,0.5 1.1,0.2 2.1,-0.2 3.2,0.1 0.6,0.2 1.2,0.2 1.3,1 -0.2,2.5 0.2,5 0.2,7.5 0,0.6 0.1,1.1 -0.2,1.7 -1.4,0.8 -2.9,0.6 -4.4,0.8 -6.1,0.7 -12.1,0.6 -18.1,-0.7 -5.1,-1.2 -9.4,-3.8 -11.3,-9.1 -0.6,-1.6 -1.3,-3.2 -1.9,-4.8 -0.1,-1.1 0.1,-2.3 0.3,-3.4 0.1,-0.4 0.1,-0.8 -0.1,-1.2 0.4,-1.6 1,-3.1 1.9,-4.5 1.9,-3 5.2,-3.7 8.3,-2.4 2.3,1 4.1,2.8 5.8,4.8 z"
   id="path15" />
	<path
   fill="#ffedd8"
   d="m 480.6,305.1 c 0.4,0.1 0.7,0.2 1.1,0.4 0.8,0.3 0.6,-0.2 0.5,-0.6 -0.1,-0.3 0.1,-0.3 0.3,-0.2 0.4,0.1 0.6,0.4 0.9,0.7 1.9,1.9 3.7,3.7 5.6,5.6 0.4,0.4 0.8,0.8 0.8,1.5 -0.2,1.2 -0.6,2.3 -1,3.4 -0.3,0.8 -0.8,1.5 -1.6,1.9 -2.9,1.3 -5.7,2.5 -8.9,3 -2.8,0.4 -5.7,0.7 -8.5,0 -1.4,-0.3 -2.7,-0.7 -4,-1.3 -0.5,-0.9 -1.3,-1.3 -1.9,-2.1 -2.1,-3.2 -3,-6.8 -3.9,-10.4 -0.7,-3.3 -1.4,-6.6 -1.2,-9.9 0,-0.3 0,-0.5 -0.2,-0.7 -0.2,-1 0.7,-1.7 0.9,-2.6 0.2,-0.5 0,-1 0.4,-1.5 0.6,-0.3 0.9,0.2 1.2,0.5 1.2,1.3 2.6,2.4 3.9,3.6 0.1,0.1 0.2,0.2 0.3,0.2 3.5,2.1 6.3,5 10,6.8 1.6,0.5 3.4,1.1 5.3,1.7 z"
   id="path16" />
	<path
   fill="#6f9985"
   d="m 489,327.9 c -0.5,1.4 -1.6,2.5 -2.5,3.7 -2.5,3.4 -4.6,7 -5.4,11.2 -0.8,4.3 -3.1,7.8 -5,11.5 -1.5,2.8 -3.6,3.3 -6.7,2.5 -0.1,0 -0.3,0 -0.3,-0.1 -1.1,-1.3 -3.1,-1.4 -4.1,-2.7 -0.4,-0.6 -1.1,-0.8 -1.7,-1.1 -1.5,-0.9 -2.7,-2 -3.3,-3.6 0.5,-0.3 0.9,0 1.3,0.2 0.8,0.4 1.2,0.2 1.4,-0.7 1.3,-4.8 3.9,-9.1 6.7,-13.2 1,-1.5 2.2,-2.8 3.3,-4.1 0.5,-0.6 1.3,-0.9 1.8,-1.5 0.3,-0.2 0.6,-0.3 0.9,-0.5 1.7,-2 4.1,-2.3 6.4,-2.6 1.7,-0.2 3.5,-0.1 5.3,0 0.8,0 1.7,-0.1 1.9,1 z"
   id="path17" />
	<path
   fill="#3d405b"
   d="m 495.3,251.4 c -0.2,6.2 -0.2,12.4 -0.3,18.6 0,2.4 -0.1,4.7 -0.2,7.1 0,0.4 -0.1,0.7 -0.2,1 -0.5,0.1 -0.8,-0.2 -1.1,-0.4 -3.3,-2 -6.7,-2.8 -10.5,-1.8 -0.5,0.1 -1.1,0.3 -1.5,-0.2 -0.4,-0.7 -0.4,-1.4 -0.4,-2.1 0.1,-5 -0.3,-9.9 -0.3,-14.9 0,-2.2 -0.2,-4.4 -0.2,-6.6 0,-0.6 0,-1.1 0.3,-1.7 0,-0.2 0,-0.3 0,-0.5 0,-2.6 0.7,-3.3 3.3,-3.3 0.3,0.4 0.6,0.6 1,0 2.3,-0.1 4.6,-0.1 6.8,-0.2 0.3,0.1 0.7,-0.1 0.9,0.4 0.2,0.9 0.5,0.1 0.8,0 1.3,0.2 1.5,1.3 1.6,2.3 0,0.8 0,1.5 0,2.3 z"
   id="path18" />
	
	
	<path
   fill="#ffedd8"
   d="m 446.7,347.9 c -0.5,0.5 -1.1,0.9 -1.6,1.4 -0.5,0.2 -0.8,-0.2 -1.1,-0.5 -1.1,-0.9 -2.3,-1.7 -3.7,-2.1 -1.8,-0.7 -3.5,-1.6 -5,-2.7 -2.7,-1.9 -5.6,-3.4 -7.8,-5.9 -1.5,-1.7 -2.9,-3.4 -4,-5.3 -0.2,-0.4 -0.6,-0.8 -0.4,-1.4 0.3,0 0.6,0 1.1,0 -0.6,-1 -1.3,-1.9 -1.1,-3.1 0.2,-0.9 0.4,-1.6 1.2,-2 0.4,-0.2 0.7,-0.4 0.8,0.3 0.1,0.6 -0.6,0.7 -0.8,1.1 -0.6,1.6 -0.4,2.6 0.8,3.6 1.3,1.1 2.6,2 4,2.8 0.7,0.4 1.5,0.7 2.3,0.6 1.5,-0.2 2.8,-1.2 4.2,-1.8 0.4,-0.2 0.2,-0.4 0.1,-0.7 -0.2,-0.5 -0.5,-0.9 -0.8,-1.4 -0.4,-1.3 -0.9,-2.5 -1.3,-3.8 -0.3,-0.9 -0.2,-1.7 0.3,-2.5 0.6,-0.8 1.3,-0.9 2,-0.2 0.3,0.3 0.6,0.6 0.8,0.9 3.4,3.2 5.7,7 6.9,11.5 0.4,1.5 0.7,3 1.4,4.5 0.4,0.9 0.9,1.8 1.7,2.4 0.4,0.8 1.1,1.4 1.3,2.3 -0.1,0.8 -0.8,1.3 -1.3,2 z"
   id="path21" />
	<path
   fill="#77a48e"
   d="m 350,238.1 c -5.5,0.3 -11.1,0.3 -16.6,0.4 0.6,-4.9 3.4,-8.2 7.4,-10.6 2.1,-1.3 4.5,-2 6.9,-2.4 0.4,-0.7 0.8,-1 1.6,-0.4 0.6,0.6 1.4,0.1 2.1,0.4 1.4,0.8 1.7,1.6 1.3,3.2 -0.3,1.2 -0.8,2.2 -1.2,3.4 -0.5,1.6 -0.9,3.2 -1,4.8 0,0.4 0,0.9 -0.5,1.2 z"
   id="path22" />
	<path
   fill="#2d2f42"
   d="m 407.8,404.5 c 1.2,1.3 1.7,2.9 2.2,4.5 1.1,3.1 3.2,5.1 5.9,6.9 2.8,1.8 5.8,2.4 9,2.7 1.7,0.1 3.4,0.5 5.1,0.6 1.5,0.1 3,-0.3 4.5,-0.2 2.7,0.1 5.3,-0.3 8,-0.6 0.4,0 0.8,0 1.1,0 0,1.2 -0.1,2.3 -0.3,3.4 -0.1,0.7 -0.5,1.2 -1.2,1.1 -3.2,-0.3 -6.3,0.2 -9.5,0.4 -3.2,0.2 -6.3,-0.3 -9.4,-0.5 -2.3,-0.1 -4.7,-0.3 -6.9,-1.1 -3.6,-1.2 -5.6,-3.9 -7,-7.2 -1.5,-3.1 -1.7,-6.5 -1.5,-10 z"
   id="path23" />
	<path
   fill="#e07a5f"
   d="m 489.5,300.9 c 0.5,0 0.8,0.2 1.1,0.7 2.1,4 4.4,7.9 7.1,11.5 2,2.6 4,5.2 6.4,7.5 0.2,0.2 0.3,0.6 0.7,0.3 0.9,2.1 1.5,4.3 3.1,6.4 -5.7,-1.4 -9.3,-5 -12.4,-9.3 -0.3,0.2 -0.1,0.5 -0.2,0.7 -0.7,-0.2 -1,-1 -1.5,-1.5 -1.6,-1.8 -2.8,-3.8 -4,-5.9 -1.4,-2.9 -2.8,-5.8 -4.1,-8.8 -0.2,-0.4 -0.6,-0.9 -0.1,-1.3 1.2,-0.3 2.5,-0.8 3.9,-0.3 z"
   id="path24" />
	<path
   fill="#cd7057"
   d="m 449,364.6 c 2.2,0.8 4.1,2 5.9,3.5 1.5,1.2 2.3,3 3.5,4.4 2,2.4 4,4.8 6,7.2 1.1,1.4 2.4,2.6 3.3,4.1 -0.5,-0.2 -0.8,-0.6 -1.1,-1 -3.8,-4.2 -8.4,-7.4 -13.4,-10 -2.8,-1.4 -5.5,-3 -8.6,-3.6 -1.5,-0.3 -3,-0.3 -4.6,0 -3.8,0.8 -6.8,2.9 -9.1,6 -0.1,0.2 -0.2,0.6 -0.5,0.3 0.9,-3.2 2.7,-5.8 5.1,-8 3.8,-3.7 8.5,-4.2 13.5,-2.9 z"
   id="path25" />
	<path
   fill="#c76c54"
   d="m 443.5,409.2 c -0.9,-1.1 -2.2,-0.6 -3.3,-0.9 -0.4,-0.1 -0.8,0 -1.2,-0.2 0.8,0.1 1,-0.4 1,-1.1 0,-2.9 0,-5.8 0.4,-8.7 0.4,-2.3 1.3,-4 3.4,-5.2 1.4,-0.8 2.8,-1.2 4.3,-1.1 1.4,0.1 2.9,0 4.3,-0.2 1.8,-0.2 3.5,0.5 5.3,0.5 -1.1,0.9 -2.3,1.7 -3.3,2.7 -2,2.1 -2.8,4.7 -3.7,7.3 -0.3,0.9 -0.6,1.1 -1.4,0.6 -0.9,-0.6 -1.8,-1.2 -2.3,-2.2 -0.6,-1.2 -1.7,-2 -2.3,-3.3 -1.1,1.9 -1,7.7 0.2,11.5 -0.3,0.4 -0.9,0.2 -1.4,0.3 z"
   id="path26" />
	<path
   fill="#81b29a"
   d="m 350,238.1 c 0.5,-1.1 0.2,-2.3 0.4,-3.4 0.4,-1.6 0.8,-3.2 1.5,-4.8 0.7,-1.6 1,-3.1 -0.5,-4.5 0.2,0 0.5,0 0.7,0 0.8,0.2 1.6,0.3 2.3,0.5 5.3,1.4 9.1,4.5 10.8,9.9 0.2,0.7 0.3,1.3 -0.1,1.9 -0.6,0.2 -1.1,0.2 -1.7,0.2 -4,0 -8,0 -12,0.3 -0.5,-0.1 -1,-0.1 -1.4,-0.1 z"
   id="path27" />
	<path
   fill="#5b7d6c"
   d="m 448.3,345.9 c -0.8,-0.5 -1.2,-1.3 -1.4,-2.1 -0.5,-0.6 0,-0.9 0.4,-1.2 0.6,-0.5 1.6,-0.5 1.9,-1.2 0.3,-0.7 -0.6,-1.3 -0.9,-2 -0.1,-0.3 -0.1,-0.5 0.1,-0.7 1,-0.6 3,-0.5 3.9,0.3 1.8,1.7 3.8,3.2 5.2,5.2 0.6,0.9 1.2,0.8 1.8,0.1 1.6,-1.5 2.9,-3.3 4.1,-5.1 1.7,-2.5 3.5,-4.8 6,-6.6 1.6,-1.2 3.4,-2.1 5.3,-2.7 0.2,0.3 -0.1,0.4 -0.2,0.5 -3.1,2.6 -5.2,5.9 -7.2,9.3 -1.8,3 -3.4,6.2 -4.2,9.6 -0.2,0.8 -0.5,0.9 -1.2,0.6 -0.6,-0.3 -1.1,-0.5 -1.7,-0.7 -2.3,-1.6 -4.7,-3.2 -6.9,-5.1 -0.8,-0.7 -2.6,-0.6 -3.4,0.1 -0.7,0.6 -1.3,1.1 -1.6,1.7 z"
   id="path28" />
	<path
   fill="#e6d6c3"
   d="m 423.2,331.3 c 2.1,4.2 5.1,7.7 9.1,10.2 2.9,1.8 5.6,4 8.9,5.1 1.5,0.5 2.7,1.6 3.9,2.6 -1.2,1 -2.3,2 -3.5,3 -0.1,0.1 -0.2,0.1 -0.3,0 -0.4,-1.1 -1.5,-1.6 -2,-2.6 -0.9,-1.2 -2.3,-1.5 -3.6,-1.6 -3.9,-0.2 -7,-1.8 -9.5,-4.6 -1.9,-2.2 -3.8,-4.4 -4.5,-7.4 -0.3,-1.4 0.2,-2.7 0.4,-4 0.1,-0.2 0.5,-0.6 1.1,-0.7 z"
   id="path29" />
	<path
   fill="#28293b"
   d="m 424.1,397.9 c -0.6,-0.1 -0.8,-0.5 -1.2,-0.9 -1.2,-1.2 -2.5,-2.4 -4,-3.2 -4.3,-2.3 -8.1,-0.6 -9.8,3.7 -0.3,0.8 -0.3,1.9 -1.2,2.5 -1.9,-4 -0.4,-10 3,-12.7 1.6,-1.2 3.4,-1.4 5.2,-1 1.6,0.4 3.2,1 4.6,2 1,0.7 2.1,1.2 3.4,1.4 0.7,0.2 0.9,0.4 0.7,1.2 -0.7,1.9 -0.4,3.9 -0.6,5.9 -0.1,0.3 -0.1,0.7 -0.1,1.1 z"
   id="path30" />
	<path
   fill="#bbbbbb"
   d="m 354.4,225.9 c -0.8,-0.2 -1.7,0.6 -2.3,-0.5 0,-1.5 0.7,-2.8 1.2,-4.2 5.3,-14.5 10.7,-29 16.2,-43.4 0,-0.1 0.1,-0.2 0.2,-0.3 0.8,0 1.4,0.4 1.8,0.9 -2.6,7 -5.1,14 -7.7,20.9 -3.1,8.3 -6.2,16.5 -9.4,24.7 -0.1,0.3 -0.2,0.6 -0.4,0.8 -0.4,0.7 0,0.9 0.4,1.1 z"
   id="path31" />
	<path
   fill="#c76c54"
   d="m 480.9,250.4 c 0.1,4.5 0.2,9 0.3,13.5 0.1,4 0.3,7.9 0.4,11.9 -0.4,0.5 -0.9,0.9 -1.6,0.7 -1.5,-5.3 -2.6,-10.7 -3.4,-16.2 -0.4,-3.1 -0.7,-6.2 -0.7,-9.3 1.2,-0.6 2.6,-0.4 3.9,-0.5 0.3,-0.1 0.7,-0.1 1.1,-0.1 z"
   id="path32" />
	<path
   fill="#cd7057"
   d="m 465.8,319.3 c 0.3,-0.1 0.6,-0.2 0.9,-0.1 3.3,1.5 6.7,1.6 10.2,1.1 0.5,-0.1 1,-0.2 1.5,-0.1 0.6,0.5 0.4,1.2 0.4,1.8 -0.2,1.9 -1,3.7 -2,5.3 -0.2,0.3 -0.5,0.6 -0.9,0.6 -3.6,2 -6.7,0.3 -9.7,-1.6 -0.5,-0.3 -0.4,-0.6 0.1,-0.8 0.9,-0.6 1.8,-1.2 2.7,-2.1 -2.5,0.2 -4.5,-0.9 -6.6,-2.2 1.4,-0.3 2.4,-1 3.4,-1.9 z"
   id="path33" />
	<path
   fill="#e5d5c2"
   d="m 475.9,328.1 c 1.7,-2.3 2.8,-4.8 2.5,-7.8 2.9,-0.6 5.5,-1.7 8.2,-2.8 0.9,-0.3 1.5,-1 1.9,-1.9 0.5,0.6 0.2,1.2 0.1,1.9 -0.2,1.9 -0.2,3.7 0,5.6 0.1,0.8 0.3,1.5 0.9,2 -0.6,1 0.2,2 0,3 -0.1,-0.1 -0.3,-0.2 -0.4,-0.2 -0.5,-0.5 -1.2,-0.7 -1.9,-0.7 -4.1,-0.2 -8.1,-0.1 -11.7,2.3 0.1,-0.5 0.2,-0.9 0.4,-1.4 z"
   id="path34" />
	<path
   fill="#e5d5c2"
   d="m 448.3,338.7 c 0.3,1.1 1.1,1.9 1.6,2.9 -0.7,0.5 -1.5,0.8 -2.2,1.1 -0.5,0.2 -1,0.4 -0.8,1.1 -1.2,-0.4 -1.5,-1.5 -1.9,-2.4 -0.6,-1.4 -1,-2.9 -1.4,-4.4 -0.8,-3.8 -2.8,-7.1 -5.3,-10 -0.5,-0.5 -0.8,-1.2 -1.5,-1.4 0,-1.1 -0.5,-2 -0.5,-3.1 0,-0.1 0,-0.2 0,-0.3 0.1,-0.5 0.1,-1 0.3,-1.4 1.6,-0.4 2.5,0.8 3.3,1.8 0.5,0.6 1,1.2 1.7,1.5 1.2,0.6 1.7,1.5 2,2.7 0.9,4 2.6,7.7 4.4,11.4 0,0.2 0.1,0.3 0.3,0.5 z"
   id="path35" />
	<path
   fill="#cd7057"
   d="m 489.5,325.1 c -0.9,0.1 -1.1,-0.4 -1.2,-1.2 -0.4,-2.8 -0.3,-5.6 0.2,-8.3 0.3,-1.2 0.5,-2.3 1,-3.4 0.2,-0.3 -0.1,-0.8 0.4,-1 1.6,2.6 3.5,4.9 5.3,7.4 0.3,1.5 0.6,3 1.4,4.4 0.7,1.3 1.5,2.3 2.7,3.3 -3.3,-0.2 -6.5,-1.5 -9.8,-1.2 z"
   id="path36" />
	<path
   fill="#bbbbbb"
   d="m 349.3,225 c -0.6,-0.1 -1.1,0 -1.6,0.4 0,-0.5 -0.2,-1 -0.4,-1.4 -5.2,-14.5 -10.3,-28.9 -15.5,-43.4 -0.1,-0.4 -0.2,-0.8 -0.3,-1.2 0.3,-0.7 0.9,-0.8 1.6,-0.7 4.5,12.8 8.9,25.5 13.4,38.3 0.9,2.6 2,5.2 2.8,8 z"
   id="path37" />
	<path
   fill="#bbbaba"
   d="m 436.5,322.3 c 0.3,0.9 0.2,1.8 0.6,2.6 0.2,0.3 0.1,0.6 -0.4,0.6 -0.2,-0.6 -0.8,-0.8 -1.2,-1.3 -0.4,-0.5 -0.9,-0.1 -1.2,0.4 -0.5,0.7 -0.4,1.5 -0.2,2.3 0.4,1.3 1.1,2.5 1.2,3.9 0.1,0.6 -0.4,0.8 -0.7,1 -0.7,0.4 -1.4,0.8 -2.2,0.8 -1.5,-0.2 -2.7,-1.1 -3.9,-1.8 -1.3,-0.7 -2.4,-1.8 -3.6,-2.6 -0.3,-0.2 -0.6,-0.5 -0.6,-0.9 0.3,-0.3 0.6,-0.6 1,-0.9 0.2,-0.1 0.3,-0.2 0.5,-0.2 0.7,-1 1.9,-1.3 2.7,-2 0.5,0.2 1.2,0.5 1.2,-0.5 0.7,-0.7 1.5,-1.4 2.5,-1.6 0.6,-0.4 1.1,-0.7 1.7,-1.1 0.8,-0.6 1.7,-0.8 2.7,-0.3 0.4,0.5 0,0.9 0,1.4 -0.4,0.1 -0.9,-0.6 -1.3,0 -0.3,0.5 0.2,0.8 0.7,0.4 0.1,0 0.2,-0.2 0.5,-0.2 z"
   id="path38" />
	<path
   fill="#cd7057"
   d="m 460,292 c -0.1,0.5 -0.1,1 -0.2,1.5 -0.6,-0.4 -0.8,-0.9 -1,-1.5 -0.6,-1.4 -1.2,-2.8 -2,-4.1 -1.9,-3.6 -2.6,-7.3 -2.2,-11.3 0.4,-0.5 0.1,-1 0.3,-1.6 0.4,0.4 0.6,0.9 0.8,1.4 1.2,2.9 2.8,5.7 4.6,8.2 0.2,0.2 0.5,0.5 0.2,0.8 0.3,1.6 -0.2,3.2 -0.3,4.8 0.2,0.5 0.3,1.2 -0.2,1.8 z"
   id="path39" />
	<path
   fill="#c56b53"
   d="m 356.2,421.8 c 0.1,-1.9 0.1,-1.9 1.9,-1.9 5,0 10.1,-0.4 15.1,-0.2 0,0.2 0,0.4 0,0.6 -0.1,1.9 -0.1,1.9 -2,2 -4.1,0.2 -8.2,0.5 -12.4,0.4 -0.6,0 -1.3,-0.1 -1.9,-0.2 -0.4,0 -0.7,-0.2 -0.7,-0.7 z"
   id="path40" />
	<path
   fill="#81b29a"
   d="m 333.1,178.7 c -0.5,0.2 -1.1,0.5 -1.6,0.7 -1.9,0.1 -3.3,-0.6 -4,-2.4 -0.6,-1.6 0,-3.5 1.4,-4.3 1.5,-0.9 3.7,-0.6 4.7,0.7 1.2,1.5 1.2,3.4 0,4.7 -0.1,0.2 -0.3,0.4 -0.5,0.6 z"
   id="path41" />
	<path
   fill="#3e415b"
   d="m 458.9,292 c 0.5,0.4 0.8,0.9 1,1.5 -0.2,1 -0.9,1.7 -1.2,2.6 -1.7,3.2 -3.7,6.3 -4.2,9.9 -0.2,1.1 0.1,2 0.4,3 0.1,0.3 0.2,0.5 0.6,0.4 -0.3,0.7 -0.9,1.2 -1.5,1.6 -0.1,-0.6 -0.6,-0.7 -0.9,-1.1 -0.9,-1.4 -1,-2.8 -0.6,-4.3 1.4,-4.7 3.7,-9.1 6.1,-13.3 0,-0.1 0.1,-0.2 0.3,-0.3 z"
   id="path42" />
	<path
   fill="#28293b"
   d="m 453.8,311.1 c 0.2,-0.8 0.8,-1.3 1.5,-1.6 1.5,-0.8 3.2,-0.5 4.2,0.8 1,1.3 1,3.2 -0.1,4.4 -1.1,1.3 -3,1.5 -4.4,0.7 -1.3,-0.9 -1.8,-2.6 -1.2,-4.3 z"
   id="path43" />
	<path
   fill="#81b29a"
   d="m 371.4,178.5 c -0.7,-0.2 -1.3,-0.5 -1.8,-0.9 -1.4,-2 -1.2,-4 0.4,-5.2 1.2,-0.9 2.8,-0.9 4,-0.1 1.2,0.8 1.7,2.4 1.3,3.8 -0.4,1.4 -1.6,2.4 -3.1,2.4 -0.3,0 -0.6,0 -0.8,0 z"
   id="path44" />
	<path
   fill="#5d7f6e"
   d="m 439.3,349.8 c 1,0.6 2,1.2 2.1,2.5 -0.6,0.6 -1.3,1.1 -2.1,1.4 -1,-1.8 -1,-2.9 0,-3.9 z"
   id="path45" />
	<path
   fill="#e6d5c3"
   d="m 432.2,322.2 c -0.8,0.6 -1.6,1.2 -2.5,1.6 -0.2,-0.3 -0.3,-0.6 -0.5,-0.9 0.3,-0.3 0.2,-0.6 0.2,-1 0,-0.4 0,-0.9 0.5,-1.1 0.5,-0.2 1,0 1.4,0.4 0.3,0.3 0.4,0.7 0.9,1 z"
   id="path46" />
	<path
   fill="#fcebd7"
   d="m 428.5,324.2 c -0.5,1.2 -1.8,1.4 -2.7,2 -0.2,-0.8 0.3,-1.7 -0.2,-2.6 1,-0.4 1.9,0.1 2.9,0.6 z"
   id="path47" />
	<path
   fill="#80b19a"
   d="m 439.3,353.6 c 0.4,-0.9 1.4,-1 2.1,-1.4 0.1,0 0.1,0 0.2,0 -1,0.8 -0.6,2 -0.7,3 -0.7,-0.3 -1.1,-0.9 -1.6,-1.6 z"
   id="path48" />
	<path
   fill="#f0ca90"
   d="m 493.6,246.8 c 0,0.1 0,0.1 -0.1,0.2 -0.2,0.4 0.1,1.1 -0.5,1.1 -0.5,0 -0.4,-0.6 -0.4,-1 0,-0.5 -0.4,-0.5 -0.6,-0.7 0.1,0 0.3,0 0.3,-0.1 1,-1.4 1.1,-0.1 1.3,0.5 z"
   id="path49" />
	<path
   fill="#e5c18c"
   d="m 485.2,246.6 c -0.1,0.4 0.3,1.2 -0.3,1.2 -0.7,0 -0.4,-0.8 -0.6,-1.3 0.2,-0.4 0.5,-0.7 0.9,0.1 z"
   id="path50" />
	<path
   fill="#6f9985"
   d="m 472.5,390.7 c -0.1,-0.2 -0.2,-0.5 -0.2,-0.7 2.5,-3.2 5.9,-5.2 9.4,-7.2 1.6,-0.9 3.3,-1.2 5.1,-1.3 0.8,0 1.5,-0.3 2,-1 2.8,-3.9 5.5,-7.9 7.5,-12.3 0.6,-1.4 1.7,-2.6 2.9,-3.6 1.3,-1 2.4,-2.2 3.6,-3.4 0.2,2.5 -0.5,4.4 -2.5,6.1 -3.7,3 -5,7.3 -5.9,11.8 -0.4,2.1 -1.3,4 -3.3,5.2 -0.7,0.4 -1.4,0.7 -2.2,0.6 -2.9,-0.3 -5.1,0.9 -7.1,2.8 -1,1 -2.2,1.6 -3.5,1.8 -2,0.5 -3.8,1.2 -5.8,1.2 z"
   id="path51" />
	<path
   fill="#3d405b"
   d="m 352,367.5 c 2.9,0 5.8,0 8.8,0 0.2,4.4 0.2,8.9 0.2,13.3 0,0.9 -0.5,0.8 -1.1,0.8 -2.9,0.1 -5.9,-0.1 -8.8,0.2 -3.5,0 -7.1,0 -10.6,0.1 -1,0 -1.2,-0.3 -1.2,-1.2 0.1,-3.9 0.1,-7.7 0,-11.6 0,-1.1 0.3,-1.3 1.3,-1.3 3.4,0 6.8,0 10.2,0 0.5,-0.1 0.9,0 1.2,-0.3 z"
   id="path52" />
	<path
   fill="#28293b"
   d="m 480,276.5 c 0.5,-0.2 1,-0.4 1.6,-0.7 1.4,-0.1 2.6,-0.7 4,-0.7 3.3,0 6.3,0.9 8.9,3 3.8,3.4 5.4,7.7 4.3,12.7 -1.1,5 -4.2,8.3 -9.1,9.9 -0.1,0 -0.2,0.1 -0.3,0.2 -1.4,0.2 -2.7,0.3 -4.1,0.5 -1.9,0.3 -3.6,-0.2 -5.1,-1.4 -4.6,-2.5 -7.2,-6.3 -7.3,-11.5 -0.1,-4.8 2,-8.6 6,-11.3 0.4,-0.2 0.8,-0.5 1.1,-0.7 z"
   id="path53" />
	<path
   fill="#e6d6c3"
   d="m 460,292 c 0,-2.2 0.1,-4.5 0.7,-6.6 1.8,2.5 3.7,4.8 6.4,6.4 0.5,0.3 0.7,0.8 0.9,1.3 2.3,4.5 5.4,8.3 9.9,10.7 0.9,0.5 1.8,0.9 2.7,1.3 -2.5,-0.3 -4.8,-1.2 -7,-2.4 -1.9,-1 -3.4,-2.7 -5.2,-3.7 -3.2,-2 -5.7,-4.6 -8.4,-7 z"
   id="path54" />
	<path
   fill="#e6d6c3"
   d="m 480.2,300 c 1.6,0.7 3.4,1 5.1,1.4 1.5,3.3 3.1,6.6 4.6,9.9 -0.1,0.3 -0.3,0.7 -0.4,1 0,-0.4 -0.3,-0.6 -0.5,-0.9 -2.1,-2.1 -4.2,-4.2 -6.4,-6.4 -0.1,-0.1 -0.3,-0.4 -0.5,-0.2 -0.8,-1.5 -1.3,-3.1 -1.9,-4.8 z"
   id="path55" />
	<path
   fill="#f2cc8f"
   d="m 432.6,414.6 c 0.2,-2.7 1.9,-3.9 4.6,-4 1.8,-0.1 3.4,2 3.4,4.1 0,2.2 -1.8,4 -4,4 -2.2,0 -4,-1.8 -4,-4.1 z"
   id="path56" />
	<path
   fill="#e7c48c"
   d="m 492.9,266.7 c 0,-0.3 0,-0.5 0,-0.8 0.1,-0.4 -0.1,-1 0.5,-1 0.4,0 0.4,0.6 0.4,0.9 0,0.7 0.1,1.4 -0.1,2 -0.1,0.2 -0.1,0.5 -0.4,0.5 -0.4,0 -0.4,-0.3 -0.4,-0.6 0,-0.2 0,-0.6 0,-1 z"
   id="path57" />
	<path
   fill="#eac68d"
   d="m 484.6,254.8 c 0.6,1.1 0.6,2.1 0.5,3.1 0,0.3 -0.1,0.6 -0.4,0.6 -0.3,0 -0.4,-0.3 -0.5,-0.6 -0.1,-1 -0.2,-2 0.4,-3.1 z"
   id="path58" />
	<path
   fill="#e9c58c"
   d="m 493.1,254.8 c 0.7,1 0.6,2 0.5,3 0,0.2 -0.1,0.4 -0.4,0.4 -0.3,0 -0.4,-0.2 -0.4,-0.4 -0.2,-1 -0.3,-2 0.3,-3 z"
   id="path59" />
	<path
   fill="#e3c08b"
   d="m 493.4,259.9 c 0.6,1 0.6,1.9 0.4,2.7 -0.1,0.2 -0.1,0.5 -0.4,0.5 -0.3,0 -0.4,-0.3 -0.4,-0.5 -0.2,-0.9 -0.2,-1.7 0.4,-2.7 z"
   id="path60" />
	<path
   fill="#debc89"
   d="m 492.7,251.7 c 0.1,-0.5 -0.2,-1.3 0.4,-1.3 0.8,0 0.5,0.9 0.5,1.4 0,0.5 0.1,1.4 -0.5,1.4 -0.6,-0.1 -0.3,-1 -0.4,-1.5 z"
   id="path61" />
	<path
   fill="#e4c18b"
   d="m 484.5,271.5 c 0.5,0.8 0.5,1.5 0.3,2.3 -0.1,0.2 -0.2,0.5 -0.4,0.4 -0.3,0 -0.4,-0.2 -0.4,-0.5 -0.2,-0.7 -0.2,-1.5 0.5,-2.2 z"
   id="path62" />
	<path
   fill="#ddbc89"
   d="m 485.2,250.9 c -0.1,0.5 0.1,1.2 -0.5,1.2 -0.5,0 -0.5,-0.8 -0.5,-1.2 0,-0.5 0,-1.4 0.4,-1.4 0.8,0.1 0.4,0.9 0.6,1.4 z"
   id="path63" />
	<path
   fill="#d4b687"
   d="m 484.6,260.7 c 0.4,1 0.5,1.7 0.4,2.5 0,0.2 -0.1,0.6 -0.4,0.6 -0.3,0 -0.4,-0.3 -0.4,-0.6 -0.1,-0.7 0.1,-1.5 0.4,-2.5 z"
   id="path64" />
	<path
   fill="#e7c48c"
   d="m 484.5,266.4 c 0.6,1 0.4,1.8 0.3,2.7 0,0.2 -0.1,0.5 -0.4,0.5 -0.2,0 -0.3,-0.2 -0.3,-0.4 0,-1 -0.1,-1.8 0.4,-2.8 z"
   id="path65" />
	<path
   fill="#ddbb89"
   d="m 493.2,270.6 c 0.5,0.6 0.4,1.1 0.4,1.7 0,0.3 -0.1,0.6 -0.4,0.6 -0.4,0 -0.5,-0.3 -0.5,-0.6 0,-0.6 0.1,-1.1 0.5,-1.7 z"
   id="path66" />
	
	<path
   fill="#9f9e9e"
   d="m 424.3,327.4 c 2.3,1.6 4.4,3.3 6.8,4.6 0.4,0.2 0.8,0.3 1.2,0.5 0.6,1.1 0,1.8 -0.7,2.5 -1.9,0.2 -3.1,-1.1 -4.5,-1.9 -0.8,-0.5 -1.6,-1.2 -2.4,-1.8 -0.9,-0.8 -1.3,-2.5 -0.9,-3.6 0.2,-0.2 0.4,-0.2 0.5,-0.3 z"
   id="path68" />
	<path
   fill="#8c8c8b"
   d="m 431.7,335 c 0.2,-0.8 0.9,-1.5 0.7,-2.5 1,-0.5 2.2,-0.7 3,-1.6 0.6,0.4 0.7,1 0.9,1.5 0.1,0.2 0.2,0.5 -0.2,0.7 -1.4,0.6 -2.7,1.7 -4.4,1.9 z"
   id="path69" />
	<path
   fill="#4e4c4c"
   d="m 436.5,322.3 c -0.2,0.3 -0.2,0.9 -0.7,0.9 -0.4,0.1 -0.8,-0.1 -1,-0.4 -0.3,-0.4 -0.1,-0.8 0.2,-1.1 0.3,-0.3 0.7,-0.4 1,-0.2 0.2,0.1 0.3,0.4 0.5,0.6 0,0.1 0,0.2 0,0.2 z"
   id="path70" />
	<path
   fill="#4c4b4b"
   d="m 432.9,327.4 c 0,0.1 0,0.2 0,0.2 -1.3,0.8 -0.4,1.4 0.1,2 0.2,0.2 0.5,0.6 0,0.8 -0.4,0.2 -0.8,0.9 -1.4,0.4 -0.3,-0.2 -0.5,-0.5 -0.8,-0.8 -0.2,-0.2 -0.5,-0.4 -0.8,-0.1 -0.8,0.8 -1.2,0.2 -1.6,-0.3 -0.3,-0.3 -0.5,-0.6 0,-0.9 0.6,-0.3 0.5,-0.6 0,-1 -0.3,-0.3 -0.9,-0.7 -0.2,-1.2 0.5,-0.4 1.1,-0.9 1.7,-0.1 0.4,0.6 0.8,0.8 1.5,0.2 0.6,-0.5 1.5,0.1 1.5,0.8 z"
   id="path71" />
	<path
   fill="#555353"
   d="m 431.3,324.8 c -0.2,0 -0.4,-0.1 -0.4,-0.3 -0.1,-0.3 1.1,-1.4 1.6,-1.4 0.2,0 0.4,0.1 0.4,0.3 0.1,0.2 -1.2,1.4 -1.6,1.4 z"
   id="path72" />
	<path
   fill="#f2cc8f"
   d="m 495.1,288.3 c 0,5.2 -3.8,9.2 -8.7,9.2 -5,0 -9.3,-4.3 -9.3,-9.5 0,-5.1 3.9,-9.1 8.8,-9.1 5.1,0 9.2,4.2 9.2,9.4 z"
   id="path73" />
	<path
   fill="#43435c"
   d="m 486.4,293.4 c 0.5,0 1.1,0 1.6,0 0.4,0 0.7,0.3 0.7,0.7 0,0.5 -0.3,0.8 -0.8,0.8 -1.1,0.1 -2.3,0.1 -3.4,0 -0.4,-0.1 -0.7,-0.3 -0.7,-0.8 0,-0.4 0.3,-0.6 0.7,-0.7 0.6,0 1.3,0 1.9,0 z"
   id="path74" />
</g>
</svg>
